<mxfile host="app.diagrams.net" modified="2023-11-23T03:03:55.916Z" agent="Mozilla/5.0 (Macintosh; Intel Mac OS X 10_15_7) AppleWebKit/537.36 (KHTML, like Gecko) Chrome/119.0.0.0 Safari/537.36" etag="PYE67rpgoDGVbKQQwcrJ" version="22.1.3" type="github">
  <diagram name="Page-1" id="0783ab3e-0a74-02c8-0abd-f7b4e66b4bec">
    <mxGraphModel dx="2074" dy="1157" grid="1" gridSize="10" guides="1" tooltips="1" connect="1" arrows="1" fold="1" page="1" pageScale="1" pageWidth="850" pageHeight="1100" background="none" math="0" shadow="0">
      <root>
        <mxCell id="0" />
        <mxCell id="1" parent="0" />
        <mxCell id="1c1d494c118603dd-1" value="Jupiter消息处理流程" style="swimlane;html=1;childLayout=stackLayout;startSize=20;rounded=0;shadow=0;comic=0;labelBackgroundColor=none;strokeWidth=1;fontFamily=Verdana;fontSize=12;align=center;" parent="1" vertex="1">
          <mxGeometry x="40" y="20" width="775" height="990" as="geometry" />
        </mxCell>
        <mxCell id="1c1d494c118603dd-2" value="数据总线" style="swimlane;html=1;startSize=20;" parent="1c1d494c118603dd-1" vertex="1">
          <mxGeometry y="20" width="250" height="970" as="geometry" />
        </mxCell>
        <mxCell id="pemR7nNhBXdZAby2gnHT-56" value="" style="edgeStyle=orthogonalEdgeStyle;rounded=0;orthogonalLoop=1;jettySize=auto;html=1;" edge="1" parent="1c1d494c118603dd-2" source="pemR7nNhBXdZAby2gnHT-53" target="pemR7nNhBXdZAby2gnHT-55">
          <mxGeometry relative="1" as="geometry" />
        </mxCell>
        <mxCell id="pemR7nNhBXdZAby2gnHT-53" value="开始" style="rounded=1;whiteSpace=wrap;html=1;shadow=0;comic=0;labelBackgroundColor=none;strokeWidth=1;fontFamily=Verdana;fontSize=12;align=center;arcSize=50;" vertex="1" parent="1c1d494c118603dd-2">
          <mxGeometry x="92.5" y="50" width="65" height="20" as="geometry" />
        </mxCell>
        <mxCell id="pemR7nNhBXdZAby2gnHT-57" value="" style="edgeStyle=orthogonalEdgeStyle;rounded=0;orthogonalLoop=1;jettySize=auto;html=1;" edge="1" parent="1c1d494c118603dd-2" source="pemR7nNhBXdZAby2gnHT-55" target="60571a20871a0731-3">
          <mxGeometry relative="1" as="geometry" />
        </mxCell>
        <mxCell id="pemR7nNhBXdZAby2gnHT-55" value="消费消息" style="rounded=0;whiteSpace=wrap;html=1;shadow=0;comic=0;labelBackgroundColor=none;strokeWidth=1;fontFamily=Verdana;fontSize=12;align=center;arcSize=50;" vertex="1" parent="1c1d494c118603dd-2">
          <mxGeometry x="90" y="110" width="70" height="30" as="geometry" />
        </mxCell>
        <mxCell id="60571a20871a0731-3" value="" style="whiteSpace=wrap;html=1;rounded=0;shadow=0;comic=0;labelBackgroundColor=none;strokeWidth=1;fillColor=#000000;fontFamily=Verdana;fontSize=12;align=center;rotation=0;" parent="1c1d494c118603dd-2" vertex="1">
          <mxGeometry x="20" y="180" width="210" height="10" as="geometry" />
        </mxCell>
        <mxCell id="pemR7nNhBXdZAby2gnHT-58" value="Kafka" style="shape=note;whiteSpace=wrap;html=1;rounded=0;shadow=0;comic=0;labelBackgroundColor=none;strokeWidth=1;fontFamily=Verdana;fontSize=12;align=center;size=20;" vertex="1" parent="1c1d494c118603dd-2">
          <mxGeometry x="5" y="130" width="85" height="42" as="geometry" />
        </mxCell>
        <mxCell id="pemR7nNhBXdZAby2gnHT-59" style="edgeStyle=none;rounded=0;html=1;labelBackgroundColor=none;startArrow=none;startFill=0;startSize=5;endArrow=oval;endFill=0;endSize=5;jettySize=auto;orthogonalLoop=1;strokeWidth=1;fontFamily=Verdana;fontSize=12;dashed=1;exitX=0;exitY=0;exitDx=65;exitDy=0;exitPerimeter=0;entryX=0;entryY=0;entryDx=0;entryDy=0;" edge="1" parent="1c1d494c118603dd-2" source="pemR7nNhBXdZAby2gnHT-58" target="pemR7nNhBXdZAby2gnHT-55">
          <mxGeometry relative="1" as="geometry">
            <mxPoint x="90" y="274" as="sourcePoint" />
            <mxPoint x="121" y="250" as="targetPoint" />
          </mxGeometry>
        </mxCell>
        <mxCell id="pemR7nNhBXdZAby2gnHT-62" value="&lt;div&gt;进出&lt;/div&gt;&lt;div&gt;经过&lt;/div&gt;&lt;div&gt;区域&lt;/div&gt;" style="rounded=0;whiteSpace=wrap;html=1;" vertex="1" parent="1c1d494c118603dd-2">
          <mxGeometry x="10" y="200" width="30" height="90" as="geometry" />
        </mxCell>
        <mxCell id="pemR7nNhBXdZAby2gnHT-63" value="排队" style="rounded=0;whiteSpace=wrap;html=1;" vertex="1" parent="1c1d494c118603dd-2">
          <mxGeometry x="50" y="200" width="30" height="90" as="geometry" />
        </mxCell>
        <mxCell id="pemR7nNhBXdZAby2gnHT-64" value="热力图" style="rounded=0;whiteSpace=wrap;html=1;" vertex="1" parent="1c1d494c118603dd-2">
          <mxGeometry x="90" y="200" width="30" height="90" as="geometry" />
        </mxCell>
        <mxCell id="pemR7nNhBXdZAby2gnHT-65" value="人头转向" style="rounded=0;whiteSpace=wrap;html=1;" vertex="1" parent="1c1d494c118603dd-2">
          <mxGeometry x="130" y="200" width="30" height="90" as="geometry" />
        </mxCell>
        <mxCell id="pemR7nNhBXdZAby2gnHT-66" value="配置拉取" style="rounded=0;whiteSpace=wrap;html=1;" vertex="1" parent="1c1d494c118603dd-2">
          <mxGeometry x="170" y="200" width="30" height="90" as="geometry" />
        </mxCell>
        <mxCell id="pemR7nNhBXdZAby2gnHT-67" value="&lt;div&gt;货架空位&lt;/div&gt;&lt;div&gt;商品&lt;/div&gt;&lt;div&gt;原图&lt;/div&gt;" style="rounded=0;whiteSpace=wrap;html=1;" vertex="1" parent="1c1d494c118603dd-2">
          <mxGeometry x="210" y="200" width="30" height="90" as="geometry" />
        </mxCell>
        <mxCell id="pemR7nNhBXdZAby2gnHT-80" value="" style="edgeStyle=orthogonalEdgeStyle;rounded=0;orthogonalLoop=1;jettySize=auto;html=1;" edge="1" parent="1c1d494c118603dd-2" source="pemR7nNhBXdZAby2gnHT-72" target="pemR7nNhBXdZAby2gnHT-79">
          <mxGeometry relative="1" as="geometry" />
        </mxCell>
        <mxCell id="pemR7nNhBXdZAby2gnHT-72" value="" style="whiteSpace=wrap;html=1;rounded=0;shadow=0;comic=0;labelBackgroundColor=none;strokeWidth=1;fillColor=#000000;fontFamily=Verdana;fontSize=12;align=center;rotation=0;" vertex="1" parent="1c1d494c118603dd-2">
          <mxGeometry x="10" y="307" width="150" height="10" as="geometry" />
        </mxCell>
        <mxCell id="pemR7nNhBXdZAby2gnHT-76" value="" style="edgeStyle=orthogonalEdgeStyle;rounded=0;orthogonalLoop=1;jettySize=auto;html=1;" edge="1" parent="1c1d494c118603dd-2" source="pemR7nNhBXdZAby2gnHT-73" target="pemR7nNhBXdZAby2gnHT-75">
          <mxGeometry relative="1" as="geometry" />
        </mxCell>
        <mxCell id="pemR7nNhBXdZAby2gnHT-73" value="结果入库" style="rounded=0;whiteSpace=wrap;html=1;shadow=0;comic=0;labelBackgroundColor=none;strokeWidth=1;fontFamily=Verdana;fontSize=12;align=center;arcSize=50;" vertex="1" parent="1c1d494c118603dd-2">
          <mxGeometry x="50" y="430" width="70" height="30" as="geometry" />
        </mxCell>
        <mxCell id="pemR7nNhBXdZAby2gnHT-75" value="结束" style="rounded=1;whiteSpace=wrap;html=1;shadow=0;comic=0;labelBackgroundColor=none;strokeWidth=1;fontFamily=Verdana;fontSize=12;align=center;arcSize=50;" vertex="1" parent="1c1d494c118603dd-2">
          <mxGeometry x="52.5" y="510" width="65" height="20" as="geometry" />
        </mxCell>
        <mxCell id="pemR7nNhBXdZAby2gnHT-83" value="" style="edgeStyle=orthogonalEdgeStyle;rounded=0;orthogonalLoop=1;jettySize=auto;html=1;" edge="1" parent="1c1d494c118603dd-2" source="pemR7nNhBXdZAby2gnHT-77" target="pemR7nNhBXdZAby2gnHT-82">
          <mxGeometry relative="1" as="geometry" />
        </mxCell>
        <mxCell id="pemR7nNhBXdZAby2gnHT-77" value="" style="whiteSpace=wrap;html=1;rounded=0;shadow=0;comic=0;labelBackgroundColor=none;strokeWidth=1;fillColor=#000000;fontFamily=Verdana;fontSize=12;align=center;rotation=0;" vertex="1" parent="1c1d494c118603dd-2">
          <mxGeometry x="170" y="307" width="70" height="10" as="geometry" />
        </mxCell>
        <mxCell id="pemR7nNhBXdZAby2gnHT-81" value="" style="edgeStyle=orthogonalEdgeStyle;rounded=0;orthogonalLoop=1;jettySize=auto;html=1;" edge="1" parent="1c1d494c118603dd-2" source="pemR7nNhBXdZAby2gnHT-79" target="pemR7nNhBXdZAby2gnHT-73">
          <mxGeometry relative="1" as="geometry" />
        </mxCell>
        <mxCell id="pemR7nNhBXdZAby2gnHT-79" value="分流消息" style="rounded=0;whiteSpace=wrap;html=1;shadow=0;comic=0;labelBackgroundColor=none;strokeWidth=1;fontFamily=Verdana;fontSize=12;align=center;arcSize=50;" vertex="1" parent="1c1d494c118603dd-2">
          <mxGeometry x="50" y="360" width="70" height="30" as="geometry" />
        </mxCell>
        <mxCell id="pemR7nNhBXdZAby2gnHT-82" value="分流消息" style="rounded=0;whiteSpace=wrap;html=1;shadow=0;comic=0;labelBackgroundColor=none;strokeWidth=1;fontFamily=Verdana;fontSize=12;align=center;arcSize=50;" vertex="1" parent="1c1d494c118603dd-2">
          <mxGeometry x="170" y="360" width="70" height="30" as="geometry" />
        </mxCell>
        <mxCell id="pemR7nNhBXdZAby2gnHT-85" value="Kafka" style="shape=note;whiteSpace=wrap;html=1;rounded=0;shadow=0;comic=0;labelBackgroundColor=none;strokeWidth=1;fontFamily=Verdana;fontSize=12;align=center;size=20;" vertex="1" parent="1c1d494c118603dd-2">
          <mxGeometry x="130" y="418" width="85" height="42" as="geometry" />
        </mxCell>
        <mxCell id="pemR7nNhBXdZAby2gnHT-86" style="edgeStyle=none;rounded=0;html=1;labelBackgroundColor=none;startArrow=none;startFill=0;startSize=5;endArrow=oval;endFill=0;endSize=5;jettySize=auto;orthogonalLoop=1;strokeWidth=1;fontFamily=Verdana;fontSize=12;dashed=1;exitX=0;exitY=0;exitDx=0;exitDy=0;exitPerimeter=0;entryX=1;entryY=1;entryDx=0;entryDy=0;" edge="1" parent="1c1d494c118603dd-2" source="pemR7nNhBXdZAby2gnHT-85" target="pemR7nNhBXdZAby2gnHT-79">
          <mxGeometry relative="1" as="geometry">
            <mxPoint x="80" y="140" as="sourcePoint" />
            <mxPoint x="100" y="120" as="targetPoint" />
          </mxGeometry>
        </mxCell>
        <mxCell id="pemR7nNhBXdZAby2gnHT-87" style="edgeStyle=none;rounded=0;html=1;dashed=1;labelBackgroundColor=none;startArrow=none;startFill=0;startSize=5;endArrow=oval;endFill=0;endSize=5;jettySize=auto;orthogonalLoop=1;strokeWidth=1;fontFamily=Verdana;fontSize=12;exitX=0;exitY=0;exitDx=65;exitDy=0;exitPerimeter=0;entryX=0.25;entryY=1;entryDx=0;entryDy=0;" edge="1" parent="1c1d494c118603dd-2" source="pemR7nNhBXdZAby2gnHT-85" target="pemR7nNhBXdZAby2gnHT-82">
          <mxGeometry relative="1" as="geometry">
            <mxPoint x="100" y="160" as="sourcePoint" />
            <mxPoint x="130" y="170" as="targetPoint" />
          </mxGeometry>
        </mxCell>
        <mxCell id="pemR7nNhBXdZAby2gnHT-88" value="" style="edgeStyle=orthogonalEdgeStyle;rounded=0;orthogonalLoop=1;jettySize=auto;html=1;" edge="1" parent="1c1d494c118603dd-1" source="pemR7nNhBXdZAby2gnHT-82" target="pemR7nNhBXdZAby2gnHT-84">
          <mxGeometry relative="1" as="geometry" />
        </mxCell>
        <mxCell id="pemR7nNhBXdZAby2gnHT-90" value="" style="edgeStyle=orthogonalEdgeStyle;rounded=0;orthogonalLoop=1;jettySize=auto;html=1;" edge="1" parent="1c1d494c118603dd-1" source="pemR7nNhBXdZAby2gnHT-82" target="pemR7nNhBXdZAby2gnHT-89">
          <mxGeometry relative="1" as="geometry" />
        </mxCell>
        <mxCell id="pemR7nNhBXdZAby2gnHT-109" style="edgeStyle=none;rounded=0;html=1;dashed=1;labelBackgroundColor=none;startArrow=none;startFill=0;startSize=5;endArrow=oval;endFill=0;endSize=5;jettySize=auto;orthogonalLoop=1;strokeWidth=1;fontFamily=Verdana;fontSize=12;exitX=1;exitY=1;exitDx=0;exitDy=0;exitPerimeter=0;entryX=0;entryY=0.25;entryDx=0;entryDy=0;" edge="1" parent="1c1d494c118603dd-1" source="pemR7nNhBXdZAby2gnHT-85" target="pemR7nNhBXdZAby2gnHT-105">
          <mxGeometry relative="1" as="geometry">
            <mxPoint x="205" y="448" as="sourcePoint" />
            <mxPoint x="198" y="420" as="targetPoint" />
          </mxGeometry>
        </mxCell>
        <mxCell id="1c1d494c118603dd-3" value="人机平台" style="swimlane;html=1;startSize=20;" parent="1c1d494c118603dd-1" vertex="1">
          <mxGeometry x="250" y="20" width="525" height="970" as="geometry" />
        </mxCell>
        <mxCell id="pemR7nNhBXdZAby2gnHT-101" value="" style="edgeStyle=orthogonalEdgeStyle;rounded=0;orthogonalLoop=1;jettySize=auto;html=1;" edge="1" parent="1c1d494c118603dd-3" source="pemR7nNhBXdZAby2gnHT-84" target="pemR7nNhBXdZAby2gnHT-99">
          <mxGeometry relative="1" as="geometry" />
        </mxCell>
        <mxCell id="pemR7nNhBXdZAby2gnHT-84" value="货架消息" style="rounded=0;whiteSpace=wrap;html=1;shadow=0;comic=0;labelBackgroundColor=none;strokeWidth=1;fontFamily=Verdana;fontSize=12;align=center;arcSize=50;" vertex="1" parent="1c1d494c118603dd-3">
          <mxGeometry x="40" y="330" width="70" height="30" as="geometry" />
        </mxCell>
        <mxCell id="pemR7nNhBXdZAby2gnHT-107" value="" style="edgeStyle=orthogonalEdgeStyle;rounded=0;orthogonalLoop=1;jettySize=auto;html=1;" edge="1" parent="1c1d494c118603dd-3" source="pemR7nNhBXdZAby2gnHT-89" target="pemR7nNhBXdZAby2gnHT-105">
          <mxGeometry relative="1" as="geometry" />
        </mxCell>
        <mxCell id="pemR7nNhBXdZAby2gnHT-89" value="配置消息" style="rounded=0;whiteSpace=wrap;html=1;shadow=0;comic=0;labelBackgroundColor=none;strokeWidth=1;fontFamily=Verdana;fontSize=12;align=center;arcSize=50;" vertex="1" parent="1c1d494c118603dd-3">
          <mxGeometry x="40" y="380" width="70" height="30" as="geometry" />
        </mxCell>
        <mxCell id="pemR7nNhBXdZAby2gnHT-91" value="生成人机&lt;br&gt;任务" style="rounded=0;whiteSpace=wrap;html=1;shadow=0;comic=0;labelBackgroundColor=none;strokeWidth=1;fontFamily=Verdana;fontSize=12;align=center;arcSize=50;" vertex="1" parent="1c1d494c118603dd-3">
          <mxGeometry x="40" y="270" width="70" height="30" as="geometry" />
        </mxCell>
        <mxCell id="pemR7nNhBXdZAby2gnHT-103" value="" style="edgeStyle=orthogonalEdgeStyle;rounded=0;orthogonalLoop=1;jettySize=auto;html=1;" edge="1" parent="1c1d494c118603dd-3" source="pemR7nNhBXdZAby2gnHT-93" target="pemR7nNhBXdZAby2gnHT-96">
          <mxGeometry relative="1" as="geometry" />
        </mxCell>
        <mxCell id="pemR7nNhBXdZAby2gnHT-93" value="推送人机&lt;br&gt;任务" style="rounded=0;whiteSpace=wrap;html=1;shadow=0;comic=0;labelBackgroundColor=none;strokeWidth=1;fontFamily=Verdana;fontSize=12;align=center;arcSize=50;" vertex="1" parent="1c1d494c118603dd-3">
          <mxGeometry x="40" y="150" width="70" height="30" as="geometry" />
        </mxCell>
        <mxCell id="pemR7nNhBXdZAby2gnHT-96" value="结果入库" style="rounded=0;whiteSpace=wrap;html=1;shadow=0;comic=0;labelBackgroundColor=none;strokeWidth=1;fontFamily=Verdana;fontSize=12;align=center;arcSize=50;" vertex="1" parent="1c1d494c118603dd-3">
          <mxGeometry x="160" y="280" width="70" height="30" as="geometry" />
        </mxCell>
        <mxCell id="pemR7nNhBXdZAby2gnHT-97" value="结束" style="rounded=1;whiteSpace=wrap;html=1;shadow=0;comic=0;labelBackgroundColor=none;strokeWidth=1;fontFamily=Verdana;fontSize=12;align=center;arcSize=50;" vertex="1" parent="1c1d494c118603dd-3">
          <mxGeometry x="162.5" y="360" width="65" height="20" as="geometry" />
        </mxCell>
        <mxCell id="pemR7nNhBXdZAby2gnHT-95" value="" style="edgeStyle=orthogonalEdgeStyle;rounded=0;orthogonalLoop=1;jettySize=auto;html=1;" edge="1" parent="1c1d494c118603dd-3" source="pemR7nNhBXdZAby2gnHT-96" target="pemR7nNhBXdZAby2gnHT-97">
          <mxGeometry relative="1" as="geometry" />
        </mxCell>
        <mxCell id="pemR7nNhBXdZAby2gnHT-100" value="True" style="edgeStyle=orthogonalEdgeStyle;rounded=0;orthogonalLoop=1;jettySize=auto;html=1;" edge="1" parent="1c1d494c118603dd-3" source="pemR7nNhBXdZAby2gnHT-99" target="pemR7nNhBXdZAby2gnHT-93">
          <mxGeometry relative="1" as="geometry" />
        </mxCell>
        <mxCell id="pemR7nNhBXdZAby2gnHT-102" value="" style="edgeStyle=orthogonalEdgeStyle;rounded=0;orthogonalLoop=1;jettySize=auto;html=1;" edge="1" parent="1c1d494c118603dd-3" source="pemR7nNhBXdZAby2gnHT-99" target="pemR7nNhBXdZAby2gnHT-96">
          <mxGeometry relative="1" as="geometry" />
        </mxCell>
        <mxCell id="pemR7nNhBXdZAby2gnHT-99" value="是否进入人机" style="rhombus;whiteSpace=wrap;html=1;" vertex="1" parent="1c1d494c118603dd-3">
          <mxGeometry x="35" y="210" width="80" height="40" as="geometry" />
        </mxCell>
        <mxCell id="pemR7nNhBXdZAby2gnHT-104" value="查询设备&lt;br&gt;配置" style="rounded=0;whiteSpace=wrap;html=1;shadow=0;comic=0;labelBackgroundColor=none;strokeWidth=1;fontFamily=Verdana;fontSize=12;align=center;arcSize=50;" vertex="1" parent="1c1d494c118603dd-3">
          <mxGeometry x="40" y="440" width="70" height="30" as="geometry" />
        </mxCell>
        <mxCell id="pemR7nNhBXdZAby2gnHT-108" value="" style="edgeStyle=orthogonalEdgeStyle;rounded=0;orthogonalLoop=1;jettySize=auto;html=1;" edge="1" parent="1c1d494c118603dd-3" source="pemR7nNhBXdZAby2gnHT-105" target="pemR7nNhBXdZAby2gnHT-106">
          <mxGeometry relative="1" as="geometry" />
        </mxCell>
        <mxCell id="pemR7nNhBXdZAby2gnHT-105" value="推送消息" style="rounded=0;whiteSpace=wrap;html=1;shadow=0;comic=0;labelBackgroundColor=none;strokeWidth=1;fontFamily=Verdana;fontSize=12;align=center;arcSize=50;" vertex="1" parent="1c1d494c118603dd-3">
          <mxGeometry x="40" y="500" width="70" height="30" as="geometry" />
        </mxCell>
        <mxCell id="pemR7nNhBXdZAby2gnHT-106" value="结束" style="rounded=1;whiteSpace=wrap;html=1;shadow=0;comic=0;labelBackgroundColor=none;strokeWidth=1;fontFamily=Verdana;fontSize=12;align=center;arcSize=50;" vertex="1" parent="1c1d494c118603dd-3">
          <mxGeometry x="42.5" y="560" width="65" height="20" as="geometry" />
        </mxCell>
        <mxCell id="pemR7nNhBXdZAby2gnHT-110" value="创建相机&lt;br&gt;配置" style="rounded=0;whiteSpace=wrap;html=1;shadow=0;comic=0;labelBackgroundColor=none;strokeWidth=1;fontFamily=Verdana;fontSize=12;align=center;arcSize=50;" vertex="1" parent="1c1d494c118603dd-3">
          <mxGeometry x="333.12" y="365" width="70" height="30" as="geometry" />
        </mxCell>
        <mxCell id="pemR7nNhBXdZAby2gnHT-111" value="修改相机&lt;br&gt;配置" style="rounded=0;whiteSpace=wrap;html=1;shadow=0;comic=0;labelBackgroundColor=none;strokeWidth=1;fontFamily=Verdana;fontSize=12;align=center;arcSize=50;" vertex="1" parent="1c1d494c118603dd-3">
          <mxGeometry x="333.12" y="440" width="70" height="30" as="geometry" />
        </mxCell>
        <mxCell id="pemR7nNhBXdZAby2gnHT-112" value="修改货架&lt;br&gt;标定" style="rounded=0;whiteSpace=wrap;html=1;shadow=0;comic=0;labelBackgroundColor=none;strokeWidth=1;fontFamily=Verdana;fontSize=12;align=center;arcSize=50;" vertex="1" parent="1c1d494c118603dd-3">
          <mxGeometry x="333.12" y="515" width="70" height="30" as="geometry" />
        </mxCell>
        <mxCell id="pemR7nNhBXdZAby2gnHT-113" value="" style="whiteSpace=wrap;html=1;rounded=0;shadow=0;comic=0;labelBackgroundColor=none;strokeWidth=1;fillColor=#000000;fontFamily=Verdana;fontSize=12;align=center;rotation=90;" vertex="1" parent="1c1d494c118603dd-3">
          <mxGeometry x="220" y="450" width="176.25" height="10" as="geometry" />
        </mxCell>
        <mxCell id="pemR7nNhBXdZAby2gnHT-114" value="" style="edgeStyle=orthogonalEdgeStyle;rounded=0;orthogonalLoop=1;jettySize=auto;html=1;" edge="1" parent="1c1d494c118603dd-3" source="pemR7nNhBXdZAby2gnHT-113" target="pemR7nNhBXdZAby2gnHT-104">
          <mxGeometry relative="1" as="geometry" />
        </mxCell>
        <mxCell id="pemR7nNhBXdZAby2gnHT-116" value="" style="edgeStyle=orthogonalEdgeStyle;rounded=0;orthogonalLoop=1;jettySize=auto;html=1;" edge="1" parent="1c1d494c118603dd-3" source="pemR7nNhBXdZAby2gnHT-115" target="pemR7nNhBXdZAby2gnHT-110">
          <mxGeometry relative="1" as="geometry" />
        </mxCell>
        <mxCell id="pemR7nNhBXdZAby2gnHT-115" value="开始" style="rounded=1;whiteSpace=wrap;html=1;shadow=0;comic=0;labelBackgroundColor=none;strokeWidth=1;fontFamily=Verdana;fontSize=12;align=center;arcSize=50;" vertex="1" parent="1c1d494c118603dd-3">
          <mxGeometry x="420" y="330" width="65" height="20" as="geometry" />
        </mxCell>
        <mxCell id="pemR7nNhBXdZAby2gnHT-119" value="" style="edgeStyle=orthogonalEdgeStyle;rounded=0;orthogonalLoop=1;jettySize=auto;html=1;" edge="1" parent="1c1d494c118603dd-3" source="pemR7nNhBXdZAby2gnHT-117" target="pemR7nNhBXdZAby2gnHT-111">
          <mxGeometry relative="1" as="geometry" />
        </mxCell>
        <mxCell id="pemR7nNhBXdZAby2gnHT-117" value="开始" style="rounded=1;whiteSpace=wrap;html=1;shadow=0;comic=0;labelBackgroundColor=none;strokeWidth=1;fontFamily=Verdana;fontSize=12;align=center;arcSize=50;" vertex="1" parent="1c1d494c118603dd-3">
          <mxGeometry x="420" y="410" width="65" height="20" as="geometry" />
        </mxCell>
        <mxCell id="pemR7nNhBXdZAby2gnHT-121" value="" style="edgeStyle=orthogonalEdgeStyle;rounded=0;orthogonalLoop=1;jettySize=auto;html=1;" edge="1" parent="1c1d494c118603dd-3" source="pemR7nNhBXdZAby2gnHT-120" target="pemR7nNhBXdZAby2gnHT-112">
          <mxGeometry relative="1" as="geometry" />
        </mxCell>
        <mxCell id="pemR7nNhBXdZAby2gnHT-120" value="开始" style="rounded=1;whiteSpace=wrap;html=1;shadow=0;comic=0;labelBackgroundColor=none;strokeWidth=1;fontFamily=Verdana;fontSize=12;align=center;arcSize=50;" vertex="1" parent="1c1d494c118603dd-3">
          <mxGeometry x="420" y="480" width="65" height="20" as="geometry" />
        </mxCell>
        <mxCell id="pemR7nNhBXdZAby2gnHT-60" style="edgeStyle=none;rounded=0;html=1;dashed=1;labelBackgroundColor=none;startArrow=none;startFill=0;startSize=5;endArrow=oval;endFill=0;endSize=5;jettySize=auto;orthogonalLoop=1;strokeWidth=1;fontFamily=Verdana;fontSize=12;exitX=0;exitY=0;exitDx=85;exitDy=20;exitPerimeter=0;" edge="1" parent="1" source="pemR7nNhBXdZAby2gnHT-58">
          <mxGeometry relative="1" as="geometry">
            <mxPoint x="145" y="335" as="sourcePoint" />
            <mxPoint x="160" y="200" as="targetPoint" />
          </mxGeometry>
        </mxCell>
      </root>
    </mxGraphModel>
  </diagram>
</mxfile>
